<?xml version="1.0" standalone="no"?>
<!DOCTYPE svg PUBLIC "-//W3C//DTD SVG 20010904//EN"
 "http://www.w3.org/TR/2001/REC-SVG-20010904/DTD/svg10.dtd">
<svg version="1.0" xmlns="http://www.w3.org/2000/svg"
 width="139.000000pt" height="139.000000pt" viewBox="0 0 139.000000 139.000000"
 preserveAspectRatio="xMidYMid meet">
<metadata>
Created by potrace 1.11, written by Peter Selinger 2001-2013
</metadata>
<g transform="translate(0.000000,139.000000) scale(0.100000,-0.100000)"
fill="#000000" stroke="none">
<path d="M871 1325 c-36 -87 -85 -112 -176 -91 -11 3 -27 1 -35 -4 -12 -7 -11
-10 5 -15 55 -17 106 -47 121 -71 17 -25 22 -82 13 -133 -2 -14 1 -26 9 -28 6
-3 12 3 12 11 0 9 9 36 20 59 33 70 107 98 189 72 15 -4 21 -2 21 8 0 9 -18
20 -45 27 -82 23 -115 80 -101 175 10 61 -6 57 -33 -10z"/>
<path d="M461 962 c-90 -88 -140 -144 -136 -153 7 -19 45 -43 45 -28 0 5 4 8
8 5 4 -2 8 -67 7 -142 -1 -173 -2 -171 116 -169 49 0 87 -3 91 -9 5 -7 8 -7 8
-1 0 6 40 10 102 9 63 -1 106 3 113 10 6 7 10 66 10 154 0 140 0 142 22 142
12 0 27 8 32 19 9 16 -7 36 -108 137 -65 66 -130 129 -144 142 l-25 23 -141
-139z m225 -34 l71 -73 -2 -155 c-2 -85 -3 -156 -4 -158 0 -1 -9 2 -19 7 -15
8 -18 22 -18 92 1 81 0 82 -27 94 -34 14 -165 11 -180 -4 -6 -6 -11 -47 -12
-92 0 -65 -4 -82 -18 -90 -9 -6 -18 -6 -18 -2 -4 19 -4 322 -1 318 6 -6 67 57
64 67 -1 5 1 7 6 4 4 -2 23 11 41 30 19 19 37 34 40 34 4 0 38 -33 77 -72z
m-45 -267 c0 -3 2 -30 3 -58 1 -41 -2 -53 -14 -54 -8 0 -25 -2 -37 -3 -24 -3
-25 1 -25 79 0 14 0 29 1 33 1 9 71 13 72 3z"/>
<path d="M1155 980 c-10 -44 -50 -72 -102 -69 -23 2 -45 0 -49 -4 -4 -4 -2 -7
5 -7 7 0 28 -7 46 -16 40 -19 60 -61 51 -109 -8 -42 10 -48 19 -6 11 49 48 76
105 74 28 -2 50 0 50 2 0 3 -18 12 -40 21 -49 20 -71 56 -64 107 5 44 -12 50
-21 7z"/>
<path d="M134 699 c-17 -18 -19 -38 -20 -158 -2 -154 -4 -148 93 -246 56 -57
67 -79 49 -94 -17 -15 -14 -148 4 -164 10 -9 11 -9 6 1 -4 7 -2 12 7 12 10 0
13 14 12 55 -2 51 7 71 18 43 4 -9 6 -8 6 2 1 9 10 16 20 16 11 0 17 -4 15 -8
-3 -4 0 -8 5 -8 6 0 11 5 11 10 0 6 5 10 11 10 5 0 7 -5 3 -11 -5 -8 -2 -9 12
-1 11 6 27 7 41 1 16 -6 23 -5 23 3 0 8 3 9 10 2 6 -6 11 -31 12 -57 0 -29 7
-52 17 -61 15 -14 17 -13 19 11 1 15 8 30 15 35 7 5 8 8 1 8 -6 0 -10 15 -9
36 1 19 -4 45 -10 57 -6 12 -11 41 -11 65 1 23 -3 42 -8 42 -5 0 -3 7 4 15 18
21 -172 216 -214 218 -26 2 -27 4 -24 45 2 23 1 42 -3 42 -3 0 -4 13 -1 29 8
58 -74 95 -114 50z m71 -21 c4 -3 7 -36 7 -72 1 -36 4 -63 8 -61 5 3 10 -1 13
-9 3 -8 -1 -17 -9 -20 -8 -3 -14 -19 -14 -40 0 -28 9 -44 49 -84 26 -27 55
-51 64 -55 27 -10 6 35 -36 79 -43 44 -57 77 -29 67 10 -4 13 -2 8 5 -5 9 -1
9 16 3 13 -5 22 -14 20 -21 -1 -6 2 -9 7 -6 5 4 18 -5 29 -19 11 -14 25 -25
32 -25 7 0 10 -7 6 -17 -4 -10 -4 -14 0 -11 4 4 22 -8 40 -26 31 -31 34 -39
34 -95 l0 -61 -70 0 c-54 0 -70 3 -70 14 0 8 -33 49 -72 91 -40 43 -72 81 -71
86 2 5 -1 9 -6 9 -5 0 -8 11 -8 25 0 14 4 25 9 25 5 0 6 6 1 13 -11 17 -12 59
-2 78 5 9 5 19 2 23 -11 11 -12 65 -1 72 6 4 5 10 -3 15 -11 7 -10 9 4 9 10 0
16 4 13 9 -7 10 19 9 29 -1z"/>
<path d="M975 701 c-23 -26 -28 -137 -6 -158 17 -18 31 -1 25 30 -2 11 2 27 9
36 7 9 8 12 1 8 -8 -4 -11 5 -11 27 1 19 5 32 9 30 5 -3 5 -10 2 -16 -5 -7 -2
-8 5 -4 7 5 10 14 8 20 -3 7 1 13 9 13 8 0 12 -3 9 -5 -3 -3 0 -11 5 -17 10
-13 13 -56 11 -190 l-1 -70 -75 -79 c-41 -44 -75 -88 -75 -98 0 -17 -7 -19
-74 -17 -60 2 -73 5 -72 18 0 9 6 19 11 23 6 5 5 8 -4 8 -10 0 -11 3 -2 14 9
10 9 16 1 21 -8 5 -4 16 12 33 13 15 15 20 6 13 -10 -8 -18 -9 -18 -3 0 5 14
15 30 21 17 5 30 12 30 15 0 3 -7 2 -17 -1 -11 -5 -14 -3 -9 6 5 7 17 11 27 8
12 -3 19 0 19 10 0 9 -5 11 -12 7 -10 -6 -9 -3 0 8 8 9 19 15 27 12 7 -3 16 0
21 7 4 8 3 10 -4 5 -7 -4 -12 -3 -12 2 0 6 11 13 25 16 14 4 25 11 25 17 0 7
-6 6 -17 -2 -16 -13 -17 -12 -4 4 10 13 17 14 26 7 10 -8 15 -8 21 1 5 8 3 10
-7 4 -12 -7 -12 -5 -1 6 11 12 14 12 22 -1 15 -24 13 -29 -35 -78 -49 -50 -51
-54 -31 -71 11 -9 15 -8 20 5 4 10 12 14 22 10 15 -6 15 -4 3 11 -9 11 -10 14
-1 9 7 -4 12 -1 12 8 0 10 6 13 15 9 10 -3 15 0 13 8 -2 8 4 13 14 13 11 -1
15 5 13 17 -2 11 2 19 8 19 8 0 8 3 2 8 -5 4 -11 16 -13 27 -4 26 -37 54 -60
50 -9 -2 -20 -4 -24 -4 -14 -2 -188 -179 -189 -193 -1 -7 -2 -38 -3 -68 -1
-30 -7 -65 -14 -76 -9 -18 -10 -53 -3 -140 2 -20 31 -11 31 10 0 18 2 19 11 6
9 -12 9 -11 4 5 -12 32 -13 75 -2 68 6 -4 8 0 4 10 -8 21 13 18 30 -3 12 -13
12 -13 8 0 -4 12 4 15 34 15 22 1 38 -2 36 -5 -2 -3 6 -7 18 -7 17 -2 19 0 7
7 -18 11 -3 12 24 1 16 -6 20 -18 22 -60 2 -55 16 -83 30 -60 10 16 12 139 3
139 -14 0 -15 59 -2 65 8 3 11 10 7 17 -6 10 -4 10 8 0 14 -11 16 -10 11 7 -3
13 -1 21 6 21 7 0 9 -5 5 -12 -4 -6 -3 -8 4 -5 5 4 8 17 6 30 -2 12 -2 16 2
10 8 -19 27 -16 20 3 -4 10 -2 13 6 8 8 -5 9 -2 4 11 -5 15 -4 16 9 5 9 -7 18
-10 22 -6 3 3 1 6 -6 6 -7 0 -9 5 -6 10 4 6 11 7 17 4 7 -4 8 -2 4 5 -4 6 -1
22 6 34 8 12 13 38 12 57 -1 19 3 38 10 42 6 5 7 8 1 8 -6 0 -11 18 -12 40 -1
22 2 38 6 36 4 -3 8 1 8 9 0 8 -4 12 -8 9 -5 -2 -8 6 -7 18 2 50 -3 68 -24 88
-28 25 -70 26 -93 1z"/>
<path d="M1086 383 c-6 -14 -5 -15 5 -6 7 7 10 15 7 18 -3 3 -9 -2 -12 -12z"/>
</g>
</svg>
